# xmcd
#
# Track frame offsets: 
#        150
#        14082
#        30012
#        45402
#        67780
#        84715
#        105692
#        128395
#        153861
#        173993
#        193644
#        213778
#        230171
#        252709
#        273466
#        286888
#        309555
#
# Disc length: 4365 seconds
#
# Revision: 0
# Processed by: cddbd v1.4PL0 Copyright (c) Steve Scherf et al.
# Submitted via: ExactAudioCopy v0.95a3
#
DISCID=e1110b11
DTITLE=Various Artist - LOVE情歌集（国语篇）_A
DYEAR=2002
DGENRE=Other
TTITLE0=容祖儿-挥着翅膀的女孩
TTITLE1=谢霆锋-边走边爱
TTITLE2=刘德华-月老
TTITLE3=黄征-爱情诺曼底
TTITLE4=蔡依林-说爱你
TTITLE5=阿杜-撕夜
TTITLE6=江美琪-最美
TTITLE7=潘美辰-我可以为你挡死
TTITLE8=梁静茹-无条件为你
TTITLE9=李圣杰-痴心绝对
TTITLE10=小刚-忘记
TTITLE11=萧亚轩-我们的寂寞
TTITLE12=萧潇-矜持
TTITLE13=陈晓东-比我幸福
TTITLE14=卢巧音-至少走得比你早
TTITLE15=苏永康-爱一个人好难
TTITLE16=王杰-我比他好
EXTD=
EXTT0=
EXTT1=
EXTT2=
EXTT3=
EXTT4=
EXTT5=
EXTT6=
EXTT7=
EXTT8=
EXTT9=
EXTT10=
EXTT11=
EXTT12=
EXTT13=
EXTT14=
EXTT15=
EXTT16=
PLAYORDER=
